<svg id="Layer_1" data-name="Layer 1" xmlns="http://www.w3.org/2000/svg" viewBox="0 0 528.21 185.47"><defs><style>.cls-1{font-size:98px;}.cls-1,.cls-5{fill:#fff;font-family:Chango-Regular, Chango;}.cls-2{fill:#59ebf7;}.cls-11,.cls-2,.cls-3,.cls-4,.cls-8,.cls-9{stroke:#fff;stroke-miterlimit:10;}.cls-3,.cls-8{fill:#0062c1;}.cls-4,.cls-9{fill:#05243d;}.cls-5{font-size:57.56px;}.cls-11,.cls-6{fill:none;}.cls-7{fill:#237577;}.cls-11,.cls-8,.cls-9{stroke-width:2px;}.cls-10{fill:#2f9b9b;}</style></defs><text class="cls-1" transform="translate(2.5 116.02)"><tspan xml:space="preserve">SCOO  S</tspan></text><circle class="cls-2" cx="407.4" cy="17.74" r="12.81"/><path class="cls-3" d="M390.58,5.38a20.75,20.75,0,0,0-4.05,12.36,21.1,21.1,0,0,0,.35,3.84H356.4A3.57,3.57,0,0,1,352.83,18V8.94a3.56,3.56,0,0,1,3.57-3.56Z"/><path class="cls-3" d="M461.83,8.94V18a3.57,3.57,0,0,1-3.57,3.57H427.92a21.1,21.1,0,0,0,.35-3.84,20.75,20.75,0,0,0-4-12.36h34A3.56,3.56,0,0,1,461.83,8.94Z"/><path class="cls-3" d="M436.93,42.63l-4.1,53.72c0,6.9-1.49,17.88-8.39,17.88H424v-9.36A15.84,15.84,0,0,0,408.15,89h-1.56a15.84,15.84,0,0,0-15.84,15.84v9.36h-.44c-6.9,0-8.48-11-8.48-17.88l-4-53.72a12.5,12.5,0,0,1,12.5-12.49h.29a20.9,20.9,0,0,0,33.6,0h.24A12.49,12.49,0,0,1,436.93,42.63Z"/><path class="cls-4" d="M412.81,89.72c4.05,1.22,11.08,5.77,11.08,14.52l.15,10h.44c7.09,0,8.38-11.67,8.38-18.57l4.11-53a12.48,12.48,0,0,0-12.48-12.49h-.29"/><path class="cls-4" d="M402,89.72c-4.05,1.22-11.07,5.77-11.07,14.52l-.15,10h-.44c-7.09,0-8.38-11.67-8.38-18.57l-4.12-53a12.48,12.48,0,0,1,12.48-12.49h.3"/><rect class="cls-3" x="398.78" y="94.06" width="17.18" height="42.38" rx="8.59"/><text class="cls-5" transform="translate(6.71 176.92) scale(1.01 1)">Moto Rentals</text><rect class="cls-6" x="1.12" y="-2.41" width="525.96" height="184.68"/><path class="cls-7" d="M401.85,16.76c0,7.08,12.62,13.79,5.55,13.79a12.81,12.81,0,0,1,0-25.62C414.47,4.93,401.85,9.69,401.85,16.76Z"/><text class="cls-1" transform="translate(2.5 116.02)"><tspan xml:space="preserve">SCOO  S</tspan></text><circle class="cls-2" cx="407.4" cy="17.74" r="12.81"/><path class="cls-8" d="M390.58,5.38a20.75,20.75,0,0,0-4.05,12.36,21.1,21.1,0,0,0,.35,3.84H356.4A3.57,3.57,0,0,1,352.83,18V8.94a3.56,3.56,0,0,1,3.57-3.56Z"/><path class="cls-8" d="M461.83,8.94V18a3.57,3.57,0,0,1-3.57,3.57H427.92a21.1,21.1,0,0,0,.35-3.84,20.75,20.75,0,0,0-4-12.36h34A3.56,3.56,0,0,1,461.83,8.94Z"/><path class="cls-8" d="M436.93,42.63l-4.1,53.72c0,6.9-1.49,17.88-8.39,17.88H424v-9.36A15.84,15.84,0,0,0,408.15,89h-1.56a15.84,15.84,0,0,0-15.84,15.84v9.36h-.44c-6.9,0-8.48-11-8.48-17.88l-4-53.72a12.5,12.5,0,0,1,12.5-12.49h.29a20.9,20.9,0,0,0,33.6,0h.24A12.49,12.49,0,0,1,436.93,42.63Z"/><path class="cls-9" d="M412.81,89.72c4.05,1.22,11.08,5.77,11.08,14.52l.15,10h.44c7.09,0,8.38-11.67,8.38-18.57l4.11-53a12.48,12.48,0,0,0-12.48-12.49h-.29"/><path class="cls-9" d="M402,89.72c-4.05,1.22-11.07,5.77-11.07,14.52l-.15,10h-.44c-7.09,0-8.38-11.67-8.38-18.57l-4.12-53a12.48,12.48,0,0,1,12.48-12.49h.3"/><rect class="cls-8" x="398.78" y="94.06" width="17.18" height="42.38" rx="8.59"/><text class="cls-5" transform="translate(6.71 176.92) scale(1.01 1)">Moto Rentals</text><rect class="cls-6" x="1.12" y="-2.41" width="525.96" height="184.68"/><path class="cls-10" d="M403.85,16.76c0,5.91,1.89,9.36,7.59,13.27.34.23-.87.52-2,.52a12.81,12.81,0,0,1,0-25.62c1.11,0,2.31.2,2,.34A12.41,12.41,0,0,0,403.85,16.76Z"/><path class="cls-7" d="M402.27,16.76c0,5.91,1.89,9.36,7.59,13.27.34.23-.87.52-2,.52a12.81,12.81,0,0,1,0-25.62c1.11,0,2.31.2,2,.34A12.41,12.41,0,0,0,402.27,16.76Z"/><circle class="cls-11" cx="407.4" cy="17.74" r="12.81"/></svg>