<?xml version="1.0" encoding="utf-8"?>
<!-- Generator: Adobe Illustrator 21.0.0, SVG Export Plug-In . SVG Version: 6.00 Build 0)  -->
<svg version="1.1" id="Layer_1" xmlns="http://www.w3.org/2000/svg" xmlns:xlink="http://www.w3.org/1999/xlink" x="0px" y="0px"
	 viewBox="0 0 60 60" style="enable-background:new 0 0 60 60;" xml:space="preserve">
<style type="text/css">
	.st0{fill:#8B979C;stroke:#474747;stroke-miterlimit:10;}
	.st1{fill:#9AAAB1;}

	#background, #front{
	transform-origin:center;
    animation: rotate 4s linear infinite;
  }
  @keyframes rotate{
	  100%{
		transform: rotateZ(359deg);
	  }
  }
</style>
<g>
	<polygon id="background" class="st0" points="48.2,7.3 15.7,7.3 1.5,29.1 10,48.8 23.7,46 41.4,52.7 58.5,36.5 	"/>
	<path id="front" class="st1" d="M12,24l3.4,2.8v-7.3l4.6-7.3l9.1,0.6l1.1,3.4l5.1-2.8l6.8,0.6l5.1,17.4l-4,4.5l-4.4-1.2l1.1,3.4
		l-2.8,3.3L28,35.8l-14.3,1.7l-5.1-9L12,24z M36.5,26.6l4-0.6l-2.3-5l-1.7,0.6L34.8,25L36.5,26.6z M24,28.9h4v-3.4L25.1,21l-4.6,3.9
		L24,28.9z"/>
</g>
</svg>
