<?xml version="1.0" encoding="utf-8"?>
<!-- Generator: Adobe Illustrator 21.0.0, SVG Export Plug-In . SVG Version: 6.00 Build 0)  -->
<svg version="1.1" id="moon" xmlns="http://www.w3.org/2000/svg" xmlns:xlink="http://www.w3.org/1999/xlink" x="0px" y="0px"
	 viewBox="0 0 199.3 230" style="enable-background:new 0 0 199.3 230;" xml:space="preserve">
<style type="text/css">
	.st0{fill:#FCEE95;stroke:#FCEE95;stroke-miterlimit:10;}
	.st1{fill:#FCCE81;stroke:#FCCE81;stroke-miterlimit:10;}

	#moon{
		animation: balancing 3s ease-in-out infinite;
		transform: rotate(-10deg);
		transform-origin: center top;
	}
	@keyframes balancing {
		50%{
			transform: rotate(0deg);
		}
		
	}
</style>
<path id="backgound" class="st0" d="M172.8,72C193.4,124,168,182.8,116,203.3c-39.3,15.6-82.5,4.8-110.2-23.9
	c13.3,0.4,27-1.9,40.1-7.1c51.9-20.6,77.3-79.4,56.8-131.3c-5-12.6-12.3-23.7-21.2-32.9C120.8,9.3,157.4,33.3,172.8,72z"/>
<ellipse id="_x37_" transform="matrix(0.9296 -0.3686 0.3686 0.9296 -6.4081 47.2332)" class="st1" cx="120.4" cy="40.4" rx="7.3" ry="7.3"/>
<ellipse id="_x36_" transform="matrix(0.9296 -0.3686 0.3686 0.9296 -28.9857 52.0563)" class="st1" cx="121.8" cy="101.9" rx="7.3" ry="7.3"/>
<ellipse id="_x35_" transform="matrix(0.9296 -0.3686 0.3686 0.9296 -16.9956 63.8882)" class="st1" cx="158.7" cy="76.4" rx="7.3" ry="7.3"/>
<ellipse id="_x34_" transform="matrix(0.9296 -0.3686 0.3686 0.9296 -39.2953 64.8885)" class="st1" cx="150.2" cy="135.3" rx="7.3" ry="7.3"/>
<ellipse id="_x33_" transform="matrix(0.9296 -0.3686 0.3686 0.9296 -49.0892 47.8097)" class="st1" cx="100.6" cy="152.4" rx="7.3" ry="7.3"/>
<ellipse id="_x32_" transform="matrix(0.9296 -0.3686 0.3686 0.9296 -65.984 29.5843)" class="st1" cx="44.4" cy="187.5" rx="7.3" ry="7.3"/>
<ellipse id="_x31_" transform="matrix(0.9296 -0.3686 0.3686 0.9296 -58.8742 58.4942)" class="st1" cx="123.7" cy="183.4" rx="7.3" ry="7.3"/>
</svg>
