<?xml version="1.0" encoding="utf-8"?>
<!-- Generator: Adobe Illustrator 21.0.0, SVG Export Plug-In . SVG Version: 6.00 Build 0)  -->
<svg version="1.1" id="Layer_1" xmlns="http://www.w3.org/2000/svg" xmlns:xlink="http://www.w3.org/1999/xlink" x="0px" y="0px"
	 viewBox="0 0 184.5 184.5" style="enable-background:new 0 0 184.5 184.5;" xml:space="preserve">
<style type="text/css">
	.st0{fill:#F18B3F;stroke:#F18B3F;stroke-miterlimit:10;}
	.st1{fill:#EF4E2D;stroke:#EF4E2D;stroke-miterlimit:10;}
	.st2{fill:#F46621;stroke:#F46621;stroke-miterlimit:10;}
</style>
<g>
	<path class="st0" d="M168.8,92.3c0,42.3-34.3,76.7-76.6,76.7c-42.3,0-76.7-34.3-76.7-76.6c0-42.3,34.3-76.7,76.6-76.7
		c40.2,0,73.5,30.9,76.5,71C168.7,88.5,168.8,90.4,168.8,92.3z"/>
	<path class="st1" d="M168.6,86.7c-6.7,20.9-20.5,40.8-40.4,56c-16.3,12.6-35.6,20.7-56,23.5c-40.8-11.1-64.9-53.1-53.9-93.9
		s53.1-64.9,93.9-53.9C143.6,26.9,166.2,54.3,168.6,86.7L168.6,86.7z"/>
	<path class="st2" d="M87.7,106.2c-20.5,14.5-43.5,21.3-63.8,20.5C4.9,89,20,43,57.8,23.9c23.3-11.8,51.1-10.8,73.5,2.5
		C133.8,53.5,117.6,85.1,87.7,106.2z"/>
	<path class="st0" d="M74.7,17.8c-3,30.9-26.9,56-58,62.3C21.6,49.5,44.5,24.9,74.7,17.8z"/>
</g>
</svg>
