<?xml version="1.0" encoding="utf-8"?>
<!-- Generator: Adobe Illustrator 21.0.0, SVG Export Plug-In . SVG Version: 6.00 Build 0)  -->
<svg version="1.1" id="rocket" xmlns="http://www.w3.org/2000/svg" xmlns:xlink="http://www.w3.org/1999/xlink" x="0px" y="0px"
	 viewBox="0 0 143.2 215.7" style="enable-background:new 0 0 143.2 215.7;" xml:space="preserve">
<style type="text/css">

	.st0{fill: #808080;stroke:#808080;stroke-miterlimit:10;}
	.st1{fill:#e4655f ;stroke:#db2e24 ;stroke-miterlimit:10;}
	.st2{fill:#282828;stroke:#808080;stroke-miterlimit:10;}
	.st3{fill:#29ABE2;stroke:#29ABE2;stroke-miterlimit:10;}
	.st4{fill:#FC7B1D;}
	.st5{fill:#F7934F;}
	.st6{fill:#F4D8C6;}

	#rocket-flame-back,
	#rocket-flame-mid{
		animation: flames .5s .2s linear infinite;
		transform-origin:center top;
	}

	#rocket-flame-front{
		animation: flames .5s linear infinite;
		animation: size .5s linear infinite;
		transform-origin:center top;
	}
	@keyframes flames{
		0%{
			opacity: .6;
		}
		50%{
			opacity: 1;
		}
		100%{
			opacity: .6;
		}
	}
	@keyframes size{
		50%{
			transform: scaleY(1.01);
		}
	}
</style>
<g>
	<path id="rocket-body" class="st0" d="M71.7,0.5c9.7,2,18.6,9.1,25.8,19.9c3.2,4.8,5.9,9.9,8.1,15.2c6.6,15.6,10.5,35.2,10.5,56.5
		c0,22.9-4.5,43.8-12,59.9c-0.3,0.7-0.7,1.4-1,2.1c-1.5,3.1-3.2,6.1-5.1,8.9H45.3c-1.2-1.8-2.3-3.8-3.4-5.8
		c-0.9-1.7-1.8-3.4-2.6-5.3c-3.1-6.9-5.6-14.1-7.4-21.4c-3.1-12.6-4.6-25.5-4.5-38.4c0-21.3,3.9-40.9,10.5-56.5
		c2.2-5.3,4.9-10.4,8.1-15.2C53.1,9.6,62,2.5,71.7,0.5z"/>
	<path id="left-wing" class="st1" d="M31,130.5c2.2,9.3,5.6,18.2,10.1,26.7c-4.7,3.2-9.1,6.8-13.2,10.7
		C13.2,181.9,4,198.2,1.3,212.4c-1.1-8.9-1-18,0.2-26.9C5,159.7,16.8,138.7,31,130.5z"/>
	<path id="rigth-wing" class="st1" d="M112.4,128.2c-2.2,9.3-5.6,18.2-10,26.7c4.6,3.2,9,6.8,13.1,10.7
		c14.6,13.9,23.9,30.3,26.5,44.5c1.1-8.9,1-18-0.2-26.9C138.3,157.3,126.4,136.3,112.4,128.2z"/>
	<path id="rocket-ring" class="st1" d="M45.8,20.4h51.7c3.2,4.8,5.9,9.9,8.1,15.2H37.8C40,30.3,42.7,25.2,45.8,20.4z"/>
	<path id="rocket-bottom_1_" class="st1" d="M39.2,152h64.9c-0.3,0.7-0.7,1.4-1,2.1c-1.5,3.1-3.2,6.1-5.1,8.9H45.3
		c-1.2-1.8-2.3-3.8-3.4-5.8C40.9,155.5,40.1,153.8,39.2,152z"/>
	<circle id="rocket-window-back" class="st2" cx="71.4" cy="78.3" r="20.6"/>
	<circle id="rocket-window-front" class="st3" cx="71" cy="77.9" r="15.4"/>
	<path id="rocket-flame-back" class="st4" d="M58.3,164.4c0,0-5.9,12.3-3.6,22.3c3.2,14.1,17.3,25.7,17.3,25.7s16-14.9,16.9-25.9
		c1.1-13-3.5-22.2-3.5-22.2H58.3z"/>
	<path id="rocket-flame-mid" class="st5" d="M60.4,164.4c0,0-4.9,10.4-3,18.7c2.7,11.8,14.5,21.6,14.5,21.6s13.4-12.5,14.2-21.7
		c0.9-10.9-2.9-18.6-2.9-18.6H60.4z"/>
	<path id="rocket-flame-front" class="st6" d="M65.2,164.4c0,0-2.8,5.9-1.7,10.7c1.5,6.8,8.3,12.4,8.3,12.4s7.7-7.2,8.1-12.4
		c0.5-6.2-1.7-10.7-1.7-10.7H65.2z"/>
</g>

</svg>
